<?xml version="1.0" encoding="UTF-8"?>
<svg xmlns="http://www.w3.org/2000/svg" xmlns:xlink="http://www.w3.org/1999/xlink" width="30px" height="67px" viewBox="0 0 30 66" version="1.1">
<g id="surface1">
<path style=" stroke:none;fill-rule:nonzero;fill:rgb(34.901961%,58.823529%,21.176471%);fill-opacity:1;" d="M 14.792969 0.179688 L 16.574219 3.488281 C 16.972656 4.097656 17.40625 4.640625 17.917969 5.144531 C 19.410156 6.617188 20.828125 8.160156 22.097656 9.816406 C 25.117188 13.734375 27.152344 18.085938 28.605469 22.792969 C 29.480469 25.667969 29.953125 28.617188 29.988281 31.597656 C 30.132812 40.515625 27.042969 48.167969 20.808594 54.53125 C 19.792969 55.539062 18.703125 56.46875 17.535156 57.296875 C 16.917969 57.296875 16.625 56.832031 16.371094 56.398438 C 15.898438 55.609375 15.605469 54.707031 15.460938 53.8125 C 15.242188 52.730469 15.097656 51.652344 15.167969 50.539062 L 15.167969 50.039062 C 15.121094 49.929688 14.574219 0.433594 14.792969 0.179688 L 14.792969 0.183594 Z M 14.792969 0.179688 "/>
<path style=" stroke:none;fill-rule:nonzero;fill:rgb(42.352941%,67.45098%,28.235294%);fill-opacity:1;" d="M 14.792969 0.0703125 C 14.71875 -0.0742188 14.644531 0.0351562 14.570312 0.105469 C 14.609375 0.828125 14.351562 1.472656 13.953125 2.085938 C 13.515625 2.695312 12.9375 3.164062 12.355469 3.667969 C 9.121094 6.433594 6.574219 9.777344 4.539062 13.515625 C 1.824219 18.550781 0.429688 23.941406 0.03125 29.621094 C -0.148438 31.667969 0.6875 38.894531 1.339844 40.980469 C 3.121094 46.515625 6.320312 51.152344 10.464844 55.179688 C 11.484375 56.148438 12.574219 57.046875 13.699219 57.910156 C 14.027344 57.910156 14.0625 57.621094 14.136719 57.40625 C 14.28125 56.949219 14.390625 56.476562 14.464844 56.003906 L 15.195312 50.613281 L 14.789062 0.0703125 Z M 14.792969 0.0703125 "/>
<path style=" stroke:none;fill-rule:nonzero;fill:rgb(76.078431%,74.901961%,74.901961%);fill-opacity:1;" d="M 16.574219 59.488281 C 16.644531 58.664062 17.046875 57.976562 17.484375 57.296875 C 17.042969 57.117188 16.71875 56.757812 16.464844 56.363281 C 16.246094 56.003906 16.0625 55.570312 15.921875 55.175781 C 15.414062 53.664062 15.304688 52.082031 15.160156 50.539062 L 15.160156 49.605469 C 14.976562 49.75 14.9375 50.96875 14.9375 51.152344 C 14.835938 52.777344 14.613281 54.410156 14.285156 56.003906 C 14.175781 56.652344 14.101562 57.296875 13.699219 57.875 C 13.699219 57.945312 13.699219 58.019531 13.734375 58.125 C 14.390625 60.03125 14.570312 61.972656 14.679688 63.949219 L 14.679688 64.671875 C 14.679688 65.535156 14.644531 65.351562 15.367188 65.640625 C 15.660156 65.746094 15.988281 65.785156 16.277344 66 C 16.496094 66 16.53125 65.820312 16.53125 65.675781 L 16.425781 64.488281 L 16.425781 61.183594 C 16.390625 60.605469 16.496094 60.03125 16.570312 59.492188 Z M 16.574219 59.488281 "/>
</g>
</svg>
